<svg xmlns="http://www.w3.org/2000/svg" width="100" height="100" fill="none" viewBox="-2.4 -2.4 28.8 28.8"><rect width="28.8" height="28.8" x="-2.4" y="-2.4" fill="rgba(107,179,0,0.644)" stroke-width="0" rx="14.4"/><path stroke="#1C1C1C" stroke-linecap="round" stroke-width="1.7" d="M17.53 2.783H6.47A3.687 3.687 0 0 0 2.783 6.47v11.06a3.687 3.687 0 0 0 3.687 3.687h11.06a3.687 3.687 0 0 0 3.687-3.687V6.47a3.687 3.687 0 0 0-3.687-3.687Z"/><path stroke="#1C1C1C" stroke-linecap="round" stroke-width="1.7" d="M8.313 21.217c0-1.97.541-4.84 2.118-7.374m10.786-5.53c-5.597 0-8.918 2.53-10.786 5.53M2.783 12c1.412-.523 4.918-.886 7.648 1.843"/><circle cx="7.852" cy="6.931" r="2.382" fill="#abff2e"/></svg>